<svg width="512" height="512" viewBox="0 0 512 512" fill="none" xmlns="http://www.w3.org/2000/svg">
<path d="M454.581 264.535C454.581 264.535 415.845 384.565 325.568 277.041C241.342 176.723 149.409 219.532 186.628 277.045C223.847 334.558 294.769 347.06 251.138 384.568C207.508 422.076 104.759 382.067 45.2151 334.557" stroke="#008D5C" stroke-width="9" stroke-linejoin="round" stroke-dasharray="29 29"/>
<path d="M35.4819 312.043C50.7496 290.5 62.9638 272.034 62.9638 259.724C62.9638 252.378 60.0683 245.332 54.9145 240.138C49.7606 234.944 42.7705 232.025 35.4819 232.025C28.1932 232.025 21.2031 234.944 16.0493 240.138C10.8954 245.332 8 252.378 8 259.724C8 272.034 20.2142 290.5 35.4819 312.043Z" stroke="#008D5C" stroke-width="9"/>
<path d="M47.6959 259.723C47.6959 262.988 46.4091 266.12 44.1185 268.428C41.8279 270.737 38.7211 272.034 35.4817 272.034C32.2423 272.034 29.1356 270.737 26.845 268.428C24.5544 266.12 23.2676 262.988 23.2676 259.723C23.2676 256.459 24.5544 253.327 26.845 251.019C29.1356 248.71 32.2423 247.413 35.4817 247.413C38.7211 247.413 41.8279 248.71 44.1185 251.019C46.4091 253.327 47.6959 256.459 47.6959 259.723Z" stroke="#008D5C" stroke-width="7"/>
<path d="M454.581 213.133H504.201L472.302 166.178H493.568L454.581 112L415.593 166.178H436.859L404.96 213.133H454.581ZM454.581 213.133V242.028" stroke="#008D5C" stroke-width="9" stroke-linecap="round" stroke-linejoin="round"/>
</svg>
